<?xml version="1.0" standalone="no"?>
<!DOCTYPE svg PUBLIC "-//W3C//DTD SVG 20010904//EN"
 "http://www.w3.org/TR/2001/REC-SVG-20010904/DTD/svg10.dtd">
<svg version="1.0" xmlns="http://www.w3.org/2000/svg"
 width="700.000000pt" height="700.000000pt" viewBox="0 0 700.000000 700.000000"
 preserveAspectRatio="xMidYMid meet">
<metadata>
Created by potrace 1.11, written by Peter Selinger 2001-2013
</metadata>
<g transform="translate(0.000000,700.000000) scale(0.100000,-0.100000)"
fill="#000000" stroke="none">
<path d="M2968 6482 l-36 -3 0 -1202 1 -1202 -1207 0 c-1199 0 -1206 0 -1207
-20 -1 -26 -1 -1136 0 -1152 1 -10 161 -13 766 -13 l764 0 -735 -736 c-404
-404 -734 -739 -732 -744 4 -12 819 -830 827 -830 3 0 334 329 735 730 401
402 732 727 735 724 3 -3 6 -341 7 -752 1 -411 2 -749 3 -752 1 -4 1150 -5
1172 -1 4 1 7 539 6 1196 0 658 3 1198 6 1202 4 3 547 6 1208 7 l1202 1 -1
570 c0 314 -1 579 -1 590 -1 20 -3 20 -1177 20 -753 0 -1178 4 -1182 10 -3 5
-6 535 -6 1176 -1 642 -4 1171 -8 1175 -7 7 -1062 12 -1140 6z"/>
</g>
</svg>
