<?xml version="1.0" encoding="utf-8"?>
<!-- Generator: Adobe Illustrator 22.1.0, SVG Export Plug-In . SVG Version: 6.00 Build 0)  -->
<svg version="1.1" id="Layer_1" xmlns="http://www.w3.org/2000/svg" xmlns:xlink="http://www.w3.org/1999/xlink" x="0px" y="0px"
	 viewBox="0 0 100 100" style="enable-background:new 0 0 100 100;" xml:space="preserve">
<style type="text/css">
	.st0{fill:#1BACB1;}
	.st1{fill:none;}
	.st2{fill:#002B38;}
	.st3{fill:#FFFFFF;}
</style>
<g>
	<path class="st0" d="M66.2,10H33.8C20.7,10,10,20.7,10,33.8v32.3C10,79.3,20.7,90,33.8,90h32.3C79.3,90,90,79.3,90,66.2V33.8
		C90,20.7,79.3,10,66.2,10z M82,66.2C82,74.9,74.9,82,66.2,82H33.8C25.1,82,18,74.9,18,66.2V33.8C18,25.1,25.1,18,33.8,18h32.3
		C74.9,18,82,25.1,82,33.8V66.2L82,66.2z"/>
	<path class="st0" d="M50,29.3c-11.4,0-20.7,9.3-20.7,20.7S38.6,70.7,50,70.7S70.7,61.4,70.7,50S61.4,29.3,50,29.3z M50,62.6
		c-7,0-12.6-5.7-12.6-12.6S43,37.4,50,37.4c7,0,12.6,5.7,12.6,12.6C62.6,57,57,62.6,50,62.6z"/>
	<circle class="st0" cx="70.7" cy="29.5" r="5"/>
</g>
</svg>
