<?xml version="1.0" encoding="utf-8"?>
<!-- Generator: Adobe Illustrator 22.1.0, SVG Export Plug-In . SVG Version: 6.00 Build 0)  -->
<svg version="1.1" id="Layer_1" xmlns="http://www.w3.org/2000/svg" xmlns:xlink="http://www.w3.org/1999/xlink" x="0px" y="0px"
	 viewBox="0 0 345 88" style="enable-background:new 0 0 345 88;" xml:space="preserve">
<style type="text/css">
	.st0{fill:none;}
	.st1{fill:#002B38;}
	.st2{fill:#FFFFFF;}
</style>
<g>
	<g>
		<path class="st0" d="M129.3,30.8c-2.5,0-4.6,0.8-6.1,2.5c-1.6,1.7-2.4,3.8-2.4,6.4c0,2.5,0.8,4.7,2.4,6.4c1.6,1.7,3.6,2.6,6.1,2.6
			c2.4,0,4.4-0.8,6-2.5c1.6-1.7,2.4-3.8,2.4-6.4c0-2.6-0.8-4.8-2.4-6.5C133.8,31.6,131.7,30.8,129.3,30.8z"/>
		<path class="st0" d="M89.6,30.8c-1.2,0-2.4,0.2-3.4,0.7c-1,0.5-1.9,1.1-2.7,1.9c-0.7,0.8-1.3,1.8-1.7,2.9
			c-0.4,1.1-0.6,2.3-0.6,3.6c0,1.7,0.4,3.3,1.1,4.6c0.7,1.4,1.8,2.4,3.1,3.1c1.3,0.7,2.7,1.1,4.3,1.1c2.4,0,4.4-0.8,6-2.5
			c1.5-1.6,2.3-3.8,2.3-6.4c0-2.7-0.8-4.9-2.4-6.6C94,31.6,92,30.8,89.6,30.8z"/>
		<path class="st0" d="M295.1,30.6c-1.8,0-3.3,0.5-4.6,1.5c-1.3,1-2.2,2.4-2.7,4.2h14.3c-0.5-1.8-1.3-3.2-2.5-4.2
			C298.5,31.1,297,30.6,295.1,30.6z"/>
		<path class="st1" d="M103.9,29.6c-0.9-1.4-2-2.6-3.3-3.6c-1.3-1-2.7-1.8-4.2-2.3c-1.6-0.5-3.2-0.8-4.9-0.8c-4.1,0-7.4,1.4-9.8,4.3
			h-0.1v-3.7h-8.7v45.6h8.7V52.3h0.1c2.3,2.8,5.5,4.2,9.6,4.2c2.2,0,4.3-0.4,6.2-1.2c1.9-0.8,3.6-1.9,4.9-3.4
			c1.4-1.4,2.5-3.2,3.2-5.3c0.8-2.1,1.2-4.4,1.2-6.8c0-1.9-0.2-3.8-0.7-5.5C105.5,32.6,104.8,31,103.9,29.6z M95.6,46.3
			c-1.5,1.6-3.5,2.5-6,2.5c-1.6,0-3-0.4-4.3-1.1c-1.3-0.7-2.3-1.8-3.1-3.1c-0.7-1.4-1.1-2.9-1.1-4.6c0-1.3,0.2-2.5,0.6-3.6
			c0.4-1.1,1-2.1,1.7-2.9c0.7-0.8,1.6-1.4,2.7-1.9c1.1-0.5,2.2-0.7,3.4-0.7c2.4,0,4.4,0.8,5.9,2.5c1.6,1.7,2.4,3.9,2.4,6.6
			C97.9,42.5,97.1,44.6,95.6,46.3z"/>
		<path class="st1" d="M141.7,27.6c-1.5-1.5-3.3-2.6-5.5-3.4c-2.1-0.8-4.5-1.2-6.9-1.2c-2.5,0-4.9,0.4-7,1.3c-2.2,0.8-4,2-5.5,3.5
			c-1.5,1.5-2.7,3.3-3.5,5.3c-0.8,2.1-1.3,4.3-1.3,6.7c0,1.9,0.3,3.7,0.8,5.5c0.5,1.7,1.3,3.3,2.3,4.6c1,1.4,2.2,2.6,3.6,3.6
			c1.4,1,3,1.8,4.8,2.3c1.8,0.5,3.7,0.8,5.7,0.8c3.3,0,6.3-0.7,8.9-2.1c2.6-1.4,4.7-3.4,6.1-5.9c1.5-2.6,2.2-5.5,2.2-8.7
			c0-2.5-0.4-4.7-1.3-6.8C144.4,30.9,143.3,29.1,141.7,27.6z M135.3,46.2c-1.6,1.7-3.6,2.5-6,2.5c-2.5,0-4.5-0.9-6.1-2.6
			c-1.6-1.7-2.4-3.8-2.4-6.4c0-2.6,0.8-4.7,2.4-6.4c1.6-1.7,3.6-2.5,6.1-2.5c2.4,0,4.4,0.8,6,2.5c1.6,1.7,2.4,3.8,2.4,6.5
			C137.8,42.4,136.9,44.5,135.3,46.2z"/>
		<path class="st2" d="M190.1,8.3c-1.5,0-2.8,0.5-3.8,1.6c-1,1-1.6,2.3-1.6,3.7c0,1,0.2,1.9,0.7,2.7c0.5,0.8,1.1,1.5,2,1.9
			c0.8,0.5,1.7,0.7,2.7,0.7c1.5,0,2.7-0.5,3.8-1.6c1.1-1,1.6-2.3,1.6-3.8c0-1.5-0.5-2.7-1.6-3.7C192.8,8.8,191.6,8.3,190.1,8.3z"/>
		<rect x="185.8" y="23.5" class="st2" width="8.7" height="32.5"/>
		<path class="st2" d="M215.9,48.7c-1,0-1.7-0.3-2.2-1c-0.4-0.7-0.7-1.7-0.7-3.1V30.7h8.8v-7.2H213V12l-8.7,0.9v10.6h-3.8v7.2h3.8
			v15c0,3.5,0.8,6.2,2.5,8.1c1.7,1.8,3.9,2.7,6.8,2.7c2,0,3.6-0.2,4.9-0.5c1.3-0.3,2.5-0.9,3.7-1.5l-2.2-6.9
			C218.5,48.3,217.1,48.7,215.9,48.7z"/>
		<path class="st1" d="M233,8.3c-1.5,0-2.8,0.5-3.8,1.6c-1,1-1.6,2.3-1.6,3.7c0,1,0.2,1.9,0.7,2.7c0.5,0.8,1.1,1.5,2,1.9
			c0.8,0.5,1.7,0.7,2.7,0.7c1.5,0,2.7-0.5,3.8-1.6c1.1-1,1.6-2.3,1.6-3.8c0-1.5-0.5-2.7-1.6-3.7C235.8,8.8,234.5,8.3,233,8.3z"/>
		<rect x="228.7" y="23.5" class="st1" width="8.7" height="32.5"/>
		<polygon class="st1" points="260.2,45.3 260.1,45.3 252.5,23.5 243.3,23.5 256.1,56 264.2,56 277,23.5 267.7,23.5 		"/>
		<path class="st1" d="M303.2,25.1c-2.4-1.4-5.2-2.1-8.3-2.1c-2.3,0-4.4,0.4-6.4,1.2c-2,0.8-3.7,2-5.1,3.4c-1.4,1.5-2.5,3.2-3.4,5.3
			c-0.8,2.1-1.2,4.3-1.2,6.8c0,3.3,0.7,6.3,2.2,8.8c1.5,2.6,3.5,4.6,6,5.9c2.5,1.4,5.4,2.1,8.5,2.1c3.1,0,5.9-0.6,8.2-1.7
			c2.4-1.1,4.3-2.6,5.8-4.5l-5.6-5.3c-2,2.5-4.6,3.7-7.8,3.7c-2.1,0-3.8-0.6-5.3-1.7c-1.5-1.1-2.5-2.6-3-4.5h22.8
			c0.2-0.5,0.2-1.6,0.2-3.1c0-3.2-0.7-6-2-8.5C307.5,28.5,305.6,26.5,303.2,25.1z M287.8,36.3c0.5-1.8,1.4-3.2,2.7-4.2
			c1.3-1,2.8-1.5,4.6-1.5c1.8,0,3.4,0.5,4.5,1.5c1.2,1,2,2.4,2.5,4.2H287.8z"/>
		<path class="st1" d="M162.3,48.6v0.2h15.5v7.1h-27V50l15.6-19.3v-0.1h-14.5v-7.1h26.2v5.8L162.3,48.6z"/>
		<g>
			<polygon class="st1" points="34,33.8 44.8,33.8 55.6,33.8 55.6,23 44.8,23 34,23 34,12.2 34,1.4 23.2,1.4 23.2,12.2 23.2,23 
				23.2,33.8 			"/>
			<polygon class="st2" points="12,34.2 15.2,34.2 1.7,47.6 9.3,55.3 22.8,41.8 22.8,44.9 22.8,55.7 33.6,55.7 33.6,44.9 33.6,34.2 
				33.6,23.4 22.8,23.4 12,23.4 1.3,23.4 1.3,34.2 			"/>
		</g>
	</g>
	<g>
		<path class="st1" d="M188.6,66.9v2.9h4.5v2.3h-4.5v5.2c0,0.4,0,0.8,0.1,1.1c0.1,0.3,0.2,0.5,0.4,0.7c0.2,0.2,0.4,0.3,0.7,0.4
			c0.3,0.1,0.6,0.1,0.9,0.1c0.2,0,0.5,0,0.7,0c0.2,0,0.5-0.1,0.7-0.1c0.2,0,0.4-0.1,0.6-0.1c0.2,0,0.4-0.1,0.5-0.1l0.3,2.1
			c-0.2,0.1-0.5,0.2-0.8,0.3c-0.3,0.1-0.6,0.2-0.9,0.2c-0.3,0.1-0.7,0.1-1,0.1c-0.4,0-0.7,0-1,0c-0.7,0-1.3-0.1-1.8-0.3
			c-0.5-0.2-1-0.4-1.4-0.8c-0.4-0.4-0.7-0.8-0.9-1.4c-0.2-0.6-0.3-1.2-0.3-2v-5.5h-2.7v-2.3h2.7v-2.9H188.6z"/>
		<path class="st1" d="M202.4,82.1c-0.9,0-1.8-0.2-2.5-0.5c-0.8-0.3-1.4-0.7-1.9-1.2c-0.5-0.5-1-1.1-1.2-1.8
			c-0.3-0.7-0.4-1.5-0.4-2.3v-0.4c0-0.9,0.1-1.8,0.4-2.5c0.3-0.8,0.7-1.4,1.2-2c0.5-0.5,1.1-1,1.8-1.3c0.7-0.3,1.5-0.5,2.3-0.5
			c0.9,0,1.6,0.1,2.3,0.4c0.7,0.3,1.3,0.7,1.7,1.2c0.5,0.5,0.8,1.1,1.1,1.9c0.2,0.7,0.4,1.5,0.4,2.4v1.3h-8.1
			c0.1,0.4,0.2,0.8,0.4,1.1c0.2,0.3,0.4,0.6,0.7,0.9c0.3,0.2,0.6,0.4,1,0.6s0.8,0.2,1.2,0.2c0.3,0,0.6,0,0.9-0.1
			c0.3-0.1,0.6-0.1,0.9-0.3c0.3-0.1,0.5-0.3,0.8-0.4c0.2-0.2,0.4-0.4,0.6-0.6l1.5,1.7c-0.2,0.3-0.4,0.5-0.7,0.8
			c-0.3,0.3-0.7,0.5-1.1,0.7s-0.9,0.4-1.4,0.5S203,82.1,202.4,82.1z M202.1,72.1c-0.3,0-0.7,0.1-1,0.2c-0.3,0.1-0.5,0.3-0.8,0.5
			c-0.2,0.2-0.4,0.5-0.5,0.8c-0.1,0.3-0.3,0.7-0.3,1.1h5.1v-0.2c0-0.3-0.1-0.6-0.2-0.9s-0.3-0.5-0.5-0.7c-0.2-0.2-0.5-0.4-0.8-0.5
			C202.8,72.2,202.4,72.1,202.1,72.1z"/>
		<path class="st1" d="M215.6,79.6c0.3,0,0.6,0,0.9-0.1c0.3-0.1,0.5-0.2,0.7-0.4c0.2-0.2,0.4-0.4,0.5-0.6c0.1-0.2,0.2-0.5,0.1-0.8
			h2.9c0,0.6-0.1,1.2-0.4,1.7c-0.3,0.5-0.6,1-1.1,1.4c-0.5,0.4-1,0.7-1.6,0.9c-0.6,0.2-1.3,0.3-2,0.3c-0.9,0-1.8-0.2-2.5-0.5
			c-0.7-0.3-1.3-0.7-1.8-1.3c-0.5-0.5-0.8-1.2-1.1-1.9c-0.2-0.7-0.4-1.5-0.4-2.4v-0.3c0-0.8,0.1-1.6,0.4-2.4
			c0.2-0.7,0.6-1.4,1.1-1.9c0.5-0.5,1.1-1,1.8-1.3c0.7-0.3,1.5-0.5,2.4-0.5c0.7,0,1.4,0.1,2.1,0.3c0.6,0.2,1.2,0.5,1.6,0.9
			c0.5,0.4,0.8,0.9,1.1,1.5c0.3,0.6,0.4,1.2,0.4,1.9h-2.9c0-0.3,0-0.6-0.1-0.8c-0.1-0.3-0.3-0.5-0.5-0.7c-0.2-0.2-0.4-0.3-0.7-0.5
			c-0.3-0.1-0.6-0.2-0.9-0.2c-0.5,0-0.9,0.1-1.2,0.3c-0.3,0.2-0.6,0.5-0.8,0.8c-0.2,0.3-0.3,0.7-0.4,1.1c-0.1,0.4-0.1,0.9-0.1,1.3
			v0.3c0,0.5,0,0.9,0.1,1.3c0.1,0.4,0.2,0.8,0.4,1.1c0.2,0.3,0.4,0.6,0.8,0.8C214.6,79.5,215.1,79.6,215.6,79.6z"/>
		<path class="st1" d="M227,71.5c0.4-0.6,0.9-1,1.5-1.4c0.6-0.3,1.2-0.5,1.9-0.5c0.6,0,1.2,0.1,1.7,0.3c0.5,0.2,1,0.5,1.4,0.9
			c0.4,0.4,0.7,0.9,0.9,1.5c0.2,0.6,0.3,1.4,0.3,2.3v7.3h-3.1v-7.3c0-0.4-0.1-0.8-0.2-1.1c-0.1-0.3-0.3-0.6-0.5-0.8
			c-0.2-0.2-0.4-0.3-0.7-0.4c-0.3-0.1-0.6-0.1-1-0.1c-0.5,0-1,0.1-1.3,0.3c-0.4,0.2-0.7,0.4-0.9,0.8v8.7h-3.1v-17h3.1V71.5z"/>
		<path class="st1" d="M240.3,69.9l0.2,1.7c0.4-0.6,1-1.1,1.6-1.4s1.3-0.5,2-0.5c0.6,0,1.2,0.1,1.7,0.3s0.9,0.5,1.3,0.8
			c0.4,0.4,0.7,0.9,0.9,1.5c0.2,0.6,0.3,1.4,0.3,2.2v7.4h-3.1v-7.3c0-0.5-0.1-0.9-0.2-1.2c-0.1-0.3-0.3-0.5-0.5-0.7
			s-0.4-0.3-0.7-0.4c-0.3-0.1-0.6-0.1-1-0.1c-0.5,0-1,0.1-1.3,0.3c-0.4,0.2-0.7,0.5-0.9,0.9v8.5h-3.1v-12H240.3z"/>
		<path class="st1" d="M250.7,75.8c0-0.9,0.1-1.7,0.4-2.4c0.3-0.7,0.6-1.4,1.1-1.9c0.5-0.5,1.1-1,1.8-1.3c0.7-0.3,1.5-0.5,2.4-0.5
			c0.9,0,1.7,0.2,2.4,0.5c0.7,0.3,1.3,0.7,1.8,1.3c0.5,0.5,0.9,1.2,1.1,1.9c0.3,0.7,0.4,1.6,0.4,2.4V76c0,0.9-0.1,1.7-0.4,2.4
			c-0.3,0.7-0.6,1.4-1.1,1.9c-0.5,0.5-1.1,1-1.8,1.3c-0.7,0.3-1.5,0.5-2.4,0.5c-0.9,0-1.7-0.2-2.4-0.5c-0.7-0.3-1.3-0.7-1.8-1.3
			c-0.5-0.5-0.9-1.2-1.1-1.9c-0.3-0.7-0.4-1.6-0.4-2.4V75.8z M253.8,76c0,0.5,0,1,0.1,1.4c0.1,0.4,0.2,0.8,0.5,1.2
			c0.2,0.3,0.5,0.6,0.8,0.8c0.3,0.2,0.7,0.3,1.2,0.3c0.5,0,0.8-0.1,1.2-0.3c0.3-0.2,0.6-0.5,0.8-0.8c0.2-0.3,0.4-0.7,0.4-1.2
			c0.1-0.4,0.1-0.9,0.1-1.4v-0.2c0-0.5,0-1-0.1-1.4c-0.1-0.4-0.2-0.8-0.4-1.2c-0.2-0.3-0.5-0.6-0.8-0.8c-0.3-0.2-0.7-0.3-1.2-0.3
			c-0.5,0-0.9,0.1-1.2,0.3c-0.3,0.2-0.6,0.5-0.8,0.8c-0.2,0.3-0.4,0.7-0.5,1.2c-0.1,0.4-0.1,0.9-0.1,1.4V76z"/>
		<path class="st1" d="M265.4,64.8h6.7v14.5h3.4v2.5h-10.2v-2.5h3.6v-12h-3.6V64.8z"/>
		<path class="st1" d="M278,75.8c0-0.9,0.1-1.7,0.4-2.4c0.3-0.7,0.6-1.4,1.1-1.9c0.5-0.5,1.1-1,1.8-1.3c0.7-0.3,1.5-0.5,2.4-0.5
			c0.9,0,1.7,0.2,2.4,0.5c0.7,0.3,1.3,0.7,1.8,1.3c0.5,0.5,0.9,1.2,1.1,1.9c0.3,0.7,0.4,1.6,0.4,2.4V76c0,0.9-0.1,1.7-0.4,2.4
			c-0.3,0.7-0.6,1.4-1.1,1.9c-0.5,0.5-1.1,1-1.8,1.3c-0.7,0.3-1.5,0.5-2.4,0.5c-0.9,0-1.7-0.2-2.4-0.5c-0.7-0.3-1.3-0.7-1.8-1.3
			c-0.5-0.5-0.9-1.2-1.1-1.9c-0.3-0.7-0.4-1.6-0.4-2.4V75.8z M281.1,76c0,0.5,0,1,0.1,1.4c0.1,0.4,0.2,0.8,0.5,1.2
			c0.2,0.3,0.5,0.6,0.8,0.8c0.3,0.2,0.7,0.3,1.2,0.3c0.5,0,0.8-0.1,1.2-0.3c0.3-0.2,0.6-0.5,0.8-0.8c0.2-0.3,0.4-0.7,0.4-1.2
			c0.1-0.4,0.1-0.9,0.1-1.4v-0.2c0-0.5,0-1-0.1-1.4c-0.1-0.4-0.2-0.8-0.4-1.2c-0.2-0.3-0.5-0.6-0.8-0.8c-0.3-0.2-0.7-0.3-1.2-0.3
			c-0.5,0-0.9,0.1-1.2,0.3c-0.3,0.2-0.6,0.5-0.8,0.8c-0.2,0.3-0.4,0.7-0.5,1.2c-0.1,0.4-0.1,0.9-0.1,1.4V76z"/>
		<path class="st1" d="M291.8,75.8c0-0.9,0.1-1.7,0.3-2.5c0.2-0.8,0.5-1.4,1-1.9c0.4-0.5,0.9-1,1.5-1.3c0.6-0.3,1.3-0.4,2-0.4
			c0.7,0,1.3,0.1,1.8,0.4c0.5,0.2,0.9,0.6,1.3,1l0.1-1.1h2.8v11.6c0,0.8-0.1,1.5-0.4,2.2c-0.3,0.6-0.7,1.2-1.2,1.6
			c-0.5,0.4-1.1,0.8-1.8,1c-0.7,0.2-1.5,0.3-2.3,0.3c-0.4,0-0.8,0-1.2-0.1c-0.4-0.1-0.8-0.2-1.2-0.3c-0.4-0.2-0.8-0.4-1.2-0.6
			c-0.4-0.2-0.7-0.5-0.9-0.9l1.4-1.9c0.4,0.4,0.8,0.8,1.3,1c0.5,0.2,1,0.3,1.6,0.3c0.9,0,1.5-0.2,2-0.7c0.5-0.5,0.7-1.1,0.7-2v-0.7
			c-0.4,0.4-0.8,0.7-1.3,0.9c-0.5,0.2-1,0.3-1.7,0.3c-0.7,0-1.4-0.2-2-0.5c-0.6-0.3-1.1-0.7-1.5-1.3c-0.4-0.5-0.7-1.2-1-1.9
			c-0.2-0.7-0.3-1.6-0.3-2.4V75.8z M294.9,76c0,0.5,0.1,1,0.1,1.4c0.1,0.4,0.3,0.8,0.5,1.1c0.2,0.3,0.5,0.6,0.8,0.8
			c0.3,0.2,0.7,0.3,1.1,0.3c0.5,0,1-0.1,1.3-0.3c0.4-0.2,0.6-0.5,0.8-0.9v-5.1c-0.2-0.4-0.5-0.7-0.8-0.9c-0.4-0.2-0.8-0.3-1.3-0.3
			c-0.4,0-0.8,0.1-1.1,0.3c-0.3,0.2-0.6,0.4-0.8,0.8c-0.2,0.3-0.4,0.7-0.5,1.2c-0.1,0.4-0.2,0.9-0.2,1.4V76z"/>
		<path class="st1" d="M306.5,69.9h6.5v9.5h3.3v2.5h-9.8v-2.5h3.4v-7h-3.4V69.9z M309.7,66.8c0-0.2,0-0.5,0.1-0.7
			c0.1-0.2,0.2-0.4,0.4-0.5c0.2-0.1,0.3-0.3,0.6-0.3c0.2-0.1,0.5-0.1,0.7-0.1c0.5,0,1,0.2,1.3,0.5c0.3,0.3,0.5,0.7,0.5,1.2
			c0,0.5-0.2,0.9-0.5,1.2c-0.3,0.3-0.8,0.5-1.3,0.5c-0.3,0-0.5,0-0.7-0.1c-0.2-0.1-0.4-0.2-0.6-0.3c-0.2-0.1-0.3-0.3-0.4-0.5
			S309.7,67,309.7,66.8z"/>
		<path class="st1" d="M325.2,82.1c-0.9,0-1.8-0.2-2.5-0.5c-0.8-0.3-1.4-0.7-1.9-1.2c-0.5-0.5-1-1.1-1.2-1.8
			c-0.3-0.7-0.4-1.5-0.4-2.3v-0.4c0-0.9,0.1-1.8,0.4-2.5c0.3-0.8,0.7-1.4,1.2-2c0.5-0.5,1.1-1,1.8-1.3c0.7-0.3,1.5-0.5,2.3-0.5
			c0.9,0,1.6,0.1,2.3,0.4c0.7,0.3,1.3,0.7,1.7,1.2c0.5,0.5,0.8,1.1,1.1,1.9c0.2,0.7,0.4,1.5,0.4,2.4v1.3h-8.1
			c0.1,0.4,0.2,0.8,0.4,1.1c0.2,0.3,0.4,0.6,0.7,0.9c0.3,0.2,0.6,0.4,1,0.6c0.4,0.1,0.8,0.2,1.2,0.2c0.3,0,0.6,0,0.9-0.1
			c0.3-0.1,0.6-0.1,0.9-0.3c0.3-0.1,0.5-0.3,0.8-0.4c0.2-0.2,0.4-0.4,0.6-0.6l1.5,1.7c-0.2,0.3-0.4,0.5-0.7,0.8
			c-0.3,0.3-0.7,0.5-1.1,0.7c-0.4,0.2-0.9,0.4-1.4,0.5C326.3,82,325.8,82.1,325.2,82.1z M324.8,72.1c-0.3,0-0.7,0.1-1,0.2
			c-0.3,0.1-0.5,0.3-0.8,0.5c-0.2,0.2-0.4,0.5-0.5,0.8c-0.1,0.3-0.3,0.7-0.3,1.1h5.1v-0.2c0-0.3-0.1-0.6-0.2-0.9s-0.3-0.5-0.5-0.7
			c-0.2-0.2-0.5-0.4-0.8-0.5C325.6,72.2,325.2,72.1,324.8,72.1z"/>
		<path class="st1" d="M340.8,78.6c0-0.2,0-0.3-0.1-0.5c-0.1-0.1-0.2-0.3-0.5-0.4c-0.2-0.1-0.5-0.2-0.9-0.3
			c-0.4-0.1-0.8-0.2-1.4-0.3c-0.7-0.1-1.3-0.3-1.9-0.5c-0.6-0.2-1.1-0.5-1.5-0.8c-0.4-0.3-0.7-0.6-1-1c-0.2-0.4-0.3-0.8-0.3-1.4
			c0-0.5,0.1-1,0.4-1.4c0.2-0.5,0.6-0.8,1-1.2c0.4-0.3,1-0.6,1.6-0.8c0.6-0.2,1.4-0.3,2.2-0.3c0.8,0,1.6,0.1,2.3,0.3
			c0.7,0.2,1.2,0.5,1.7,0.8c0.5,0.3,0.8,0.8,1.1,1.2c0.2,0.5,0.4,1,0.4,1.5h-3.1c0-0.5-0.2-0.9-0.6-1.2c-0.4-0.3-1-0.5-1.7-0.5
			c-0.7,0-1.3,0.1-1.6,0.4c-0.4,0.3-0.5,0.6-0.5,1c0,0.2,0,0.3,0.1,0.5c0.1,0.2,0.2,0.3,0.4,0.4c0.2,0.1,0.4,0.2,0.8,0.3
			c0.3,0.1,0.7,0.2,1.2,0.3c0.7,0.1,1.4,0.3,2,0.5c0.6,0.2,1.2,0.4,1.6,0.7c0.5,0.3,0.8,0.6,1.1,1.1c0.3,0.4,0.4,0.9,0.4,1.5
			c0,0.5-0.1,1-0.4,1.5c-0.3,0.4-0.6,0.8-1.1,1.2c-0.5,0.3-1,0.6-1.7,0.8c-0.7,0.2-1.4,0.3-2.2,0.3c-0.9,0-1.7-0.1-2.4-0.4
			c-0.7-0.2-1.3-0.5-1.7-0.9c-0.5-0.4-0.8-0.8-1.1-1.3c-0.2-0.5-0.4-1-0.4-1.5h2.9c0,0.3,0.1,0.6,0.3,0.8c0.2,0.2,0.4,0.4,0.6,0.6
			c0.2,0.1,0.5,0.2,0.8,0.3c0.3,0.1,0.6,0.1,1,0.1c0.8,0,1.3-0.1,1.7-0.4C340.6,79.3,340.8,79,340.8,78.6z"/>
	</g>
</g>
</svg>
