<?xml version="1.0" encoding="utf-8"?>
<!-- Generator: Adobe Illustrator 22.1.0, SVG Export Plug-In . SVG Version: 6.00 Build 0)  -->
<svg version="1.1" id="Layer_1" xmlns="http://www.w3.org/2000/svg" xmlns:xlink="http://www.w3.org/1999/xlink" x="0px" y="0px"
	 viewBox="0 0 358 100" style="enable-background:new 0 0 358 100;" xml:space="preserve">
<style type="text/css">
	.st0{fill:#1BACB1;}
	.st1{fill:none;}
	.st2{fill:#002B38;}
	.st3{fill:#FFFFFF;}
</style>
<g>
	<g>
		<path class="st1" d="M135.8,36.8c-2.5,0-4.6,0.8-6.1,2.5c-1.6,1.7-2.4,3.8-2.4,6.4c0,2.5,0.8,4.7,2.4,6.4c1.6,1.7,3.6,2.6,6.1,2.6
			c2.4,0,4.4-0.8,6-2.5c1.6-1.7,2.4-3.8,2.4-6.4c0-2.6-0.8-4.8-2.4-6.5C140.3,37.6,138.2,36.8,135.8,36.8z"/>
		<path class="st1" d="M96.1,36.8c-1.2,0-2.4,0.2-3.4,0.7c-1,0.5-1.9,1.1-2.7,1.9c-0.7,0.8-1.3,1.8-1.7,2.9
			c-0.4,1.1-0.6,2.3-0.6,3.6c0,1.7,0.4,3.3,1.1,4.6c0.7,1.4,1.8,2.4,3.1,3.1c1.3,0.7,2.7,1.1,4.3,1.1c2.4,0,4.4-0.8,6-2.5
			c1.5-1.6,2.3-3.8,2.3-6.4c0-2.7-0.8-4.9-2.4-6.6C100.5,37.6,98.5,36.8,96.1,36.8z"/>
		<path class="st1" d="M301.6,36.6c-1.8,0-3.3,0.5-4.6,1.5c-1.3,1-2.2,2.4-2.7,4.2h14.3c-0.5-1.8-1.3-3.2-2.5-4.2
			C305,37.1,303.5,36.6,301.6,36.6z"/>
		<path class="st2" d="M110.4,35.6c-0.9-1.4-2-2.6-3.3-3.6c-1.3-1-2.7-1.8-4.2-2.3c-1.6-0.5-3.2-0.8-4.9-0.8c-4.1,0-7.4,1.4-9.8,4.3
			H88v-3.7h-8.7v45.6H88V58.3h0.1c2.3,2.8,5.5,4.2,9.6,4.2c2.2,0,4.3-0.4,6.2-1.2c1.9-0.8,3.6-1.9,4.9-3.4c1.4-1.4,2.5-3.2,3.2-5.3
			c0.8-2.1,1.2-4.4,1.2-6.8c0-1.9-0.2-3.8-0.7-5.5C112,38.6,111.3,37,110.4,35.6z M102.1,52.3c-1.5,1.6-3.5,2.5-6,2.5
			c-1.6,0-3-0.4-4.3-1.1c-1.3-0.7-2.3-1.8-3.1-3.1c-0.7-1.4-1.1-2.9-1.1-4.6c0-1.3,0.2-2.5,0.6-3.6c0.4-1.1,1-2.1,1.7-2.9
			c0.7-0.8,1.6-1.4,2.7-1.9c1.1-0.5,2.2-0.7,3.4-0.7c2.4,0,4.4,0.8,5.9,2.5c1.6,1.7,2.4,3.9,2.4,6.6
			C104.4,48.5,103.6,50.6,102.1,52.3z"/>
		<path class="st2" d="M148.2,33.6c-1.5-1.5-3.3-2.6-5.5-3.4c-2.1-0.8-4.5-1.2-6.9-1.2c-2.5,0-4.9,0.4-7,1.3c-2.2,0.8-4,2-5.5,3.5
			c-1.5,1.5-2.7,3.3-3.5,5.3c-0.8,2.1-1.3,4.3-1.3,6.7c0,1.9,0.3,3.7,0.8,5.5c0.5,1.7,1.3,3.3,2.3,4.6c1,1.4,2.2,2.6,3.6,3.6
			c1.4,1,3,1.8,4.8,2.3c1.8,0.5,3.7,0.8,5.7,0.8c3.3,0,6.3-0.7,8.9-2.1c2.6-1.4,4.7-3.4,6.1-5.9c1.5-2.6,2.2-5.5,2.2-8.7
			c0-2.5-0.4-4.7-1.3-6.8C150.9,36.9,149.8,35.1,148.2,33.6z M141.8,52.2c-1.6,1.7-3.6,2.5-6,2.5c-2.5,0-4.5-0.9-6.1-2.6
			c-1.6-1.7-2.4-3.8-2.4-6.4c0-2.6,0.8-4.7,2.4-6.4c1.6-1.7,3.6-2.5,6.1-2.5c2.4,0,4.4,0.8,6,2.5c1.6,1.7,2.4,3.8,2.4,6.5
			C144.3,48.4,143.4,50.5,141.8,52.2z"/>
		<path class="st3" d="M196.6,14.3c-1.5,0-2.8,0.5-3.8,1.6c-1,1-1.6,2.3-1.6,3.7c0,1,0.2,1.9,0.7,2.7c0.5,0.8,1.1,1.5,2,1.9
			c0.8,0.5,1.7,0.7,2.7,0.7c1.5,0,2.7-0.5,3.8-1.6c1.1-1,1.6-2.3,1.6-3.8c0-1.5-0.5-2.7-1.6-3.7C199.3,14.8,198.1,14.3,196.6,14.3z"
			/>
		<rect x="192.3" y="29.5" class="st3" width="8.7" height="32.5"/>
		<path class="st3" d="M222.4,54.7c-1,0-1.7-0.3-2.2-1c-0.4-0.7-0.7-1.7-0.7-3.1V36.7h8.8v-7.2h-8.8V18l-8.7,0.9v10.6H207v7.2h3.8
			v15c0,3.5,0.8,6.2,2.5,8.1c1.7,1.8,3.9,2.7,6.8,2.7c2,0,3.6-0.2,4.9-0.5c1.3-0.3,2.5-0.9,3.7-1.5l-2.2-6.9
			C225,54.3,223.6,54.7,222.4,54.7z"/>
		<path class="st2" d="M239.5,14.3c-1.5,0-2.8,0.5-3.8,1.6c-1,1-1.6,2.3-1.6,3.7c0,1,0.2,1.9,0.7,2.7c0.5,0.8,1.1,1.5,2,1.9
			c0.8,0.5,1.7,0.7,2.7,0.7c1.5,0,2.7-0.5,3.8-1.6c1.1-1,1.6-2.3,1.6-3.8c0-1.5-0.5-2.7-1.6-3.7C242.3,14.8,241,14.3,239.5,14.3z"/>
		<rect x="235.2" y="29.5" class="st2" width="8.7" height="32.5"/>
		<polygon class="st2" points="266.7,51.3 266.6,51.3 259,29.5 249.8,29.5 262.6,62 270.7,62 283.5,29.5 274.2,29.5 		"/>
		<path class="st2" d="M309.7,31.1c-2.4-1.4-5.2-2.1-8.3-2.1c-2.3,0-4.4,0.4-6.4,1.2c-2,0.8-3.7,2-5.1,3.4c-1.4,1.5-2.5,3.2-3.4,5.3
			c-0.8,2.1-1.2,4.3-1.2,6.8c0,3.3,0.7,6.3,2.2,8.8c1.5,2.6,3.5,4.6,6,5.9c2.5,1.4,5.4,2.1,8.5,2.1c3.1,0,5.9-0.6,8.2-1.7
			c2.4-1.1,4.3-2.6,5.8-4.5l-5.6-5.3c-2,2.5-4.6,3.7-7.8,3.7c-2.1,0-3.8-0.6-5.3-1.7c-1.5-1.1-2.5-2.6-3-4.5h22.8
			c0.2-0.5,0.2-1.6,0.2-3.1c0-3.2-0.7-6-2-8.5C314,34.5,312.1,32.5,309.7,31.1z M294.3,42.3c0.5-1.8,1.4-3.2,2.7-4.2
			c1.3-1,2.8-1.5,4.6-1.5c1.8,0,3.4,0.5,4.5,1.5c1.2,1,2,2.4,2.5,4.2H294.3z"/>
		<path class="st2" d="M168.8,54.6v0.2h15.5v7.1h-27V56l15.6-19.3v-0.1h-14.5v-7.1h26.2v5.8L168.8,54.6z"/>
		<g>
			<polygon class="st2" points="40.5,39.8 51.3,39.8 62.1,39.8 62.1,29 51.3,29 40.5,29 40.5,18.2 40.5,7.4 29.7,7.4 29.7,18.2 
				29.7,29 29.7,39.8 			"/>
			<polygon class="st3" points="18.5,40.2 21.7,40.2 8.2,53.6 15.8,61.3 29.3,47.8 29.3,50.9 29.3,61.7 40.1,61.7 40.1,50.9 
				40.1,40.2 40.1,29.4 29.3,29.4 18.5,29.4 7.8,29.4 7.8,40.2 			"/>
		</g>
	</g>
	<g>
		<path class="st2" d="M195.1,72.9v2.9h4.5v2.3h-4.5v5.2c0,0.4,0,0.8,0.1,1.1c0.1,0.3,0.2,0.5,0.4,0.7c0.2,0.2,0.4,0.3,0.7,0.4
			c0.3,0.1,0.6,0.1,0.9,0.1c0.2,0,0.5,0,0.7,0c0.2,0,0.5-0.1,0.7-0.1c0.2,0,0.4-0.1,0.6-0.1c0.2,0,0.4-0.1,0.5-0.1l0.3,2.1
			c-0.2,0.1-0.5,0.2-0.8,0.3c-0.3,0.1-0.6,0.2-0.9,0.2c-0.3,0.1-0.7,0.1-1,0.1c-0.4,0-0.7,0-1,0c-0.7,0-1.3-0.1-1.8-0.3
			c-0.5-0.2-1-0.4-1.4-0.8c-0.4-0.4-0.7-0.8-0.9-1.4c-0.2-0.6-0.3-1.2-0.3-2v-5.5h-2.7v-2.3h2.7v-2.9H195.1z"/>
		<path class="st2" d="M208.9,88.1c-0.9,0-1.8-0.2-2.5-0.5c-0.8-0.3-1.4-0.7-1.9-1.2c-0.5-0.5-1-1.1-1.2-1.8
			c-0.3-0.7-0.4-1.5-0.4-2.3v-0.4c0-0.9,0.1-1.8,0.4-2.5c0.3-0.8,0.7-1.4,1.2-2c0.5-0.5,1.1-1,1.8-1.3c0.7-0.3,1.5-0.5,2.3-0.5
			c0.9,0,1.6,0.1,2.3,0.4c0.7,0.3,1.3,0.7,1.7,1.2c0.5,0.5,0.8,1.1,1.1,1.9c0.2,0.7,0.4,1.5,0.4,2.4v1.3h-8.1
			c0.1,0.4,0.2,0.8,0.4,1.1c0.2,0.3,0.4,0.6,0.7,0.9c0.3,0.2,0.6,0.4,1,0.6s0.8,0.2,1.2,0.2c0.3,0,0.6,0,0.9-0.1
			c0.3-0.1,0.6-0.1,0.9-0.3c0.3-0.1,0.5-0.3,0.8-0.4c0.2-0.2,0.4-0.4,0.6-0.6l1.5,1.7c-0.2,0.3-0.4,0.5-0.7,0.8
			c-0.3,0.3-0.7,0.5-1.1,0.7s-0.9,0.4-1.4,0.5S209.5,88.1,208.9,88.1z M208.6,78.1c-0.3,0-0.7,0.1-1,0.2c-0.3,0.1-0.5,0.3-0.8,0.5
			c-0.2,0.2-0.4,0.5-0.5,0.8c-0.1,0.3-0.3,0.7-0.3,1.1h5.1v-0.2c0-0.3-0.1-0.6-0.2-0.9s-0.3-0.5-0.5-0.7c-0.2-0.2-0.5-0.4-0.8-0.5
			C209.3,78.2,208.9,78.1,208.6,78.1z"/>
		<path class="st2" d="M222.1,85.6c0.3,0,0.6,0,0.9-0.1c0.3-0.1,0.5-0.2,0.7-0.4c0.2-0.2,0.4-0.4,0.5-0.6c0.1-0.2,0.2-0.5,0.1-0.8
			h2.9c0,0.6-0.1,1.2-0.4,1.7c-0.3,0.5-0.6,1-1.1,1.4c-0.5,0.4-1,0.7-1.6,0.9c-0.6,0.2-1.3,0.3-2,0.3c-0.9,0-1.8-0.2-2.5-0.5
			c-0.7-0.3-1.3-0.7-1.8-1.3c-0.5-0.5-0.8-1.2-1.1-1.9c-0.2-0.7-0.4-1.5-0.4-2.4v-0.3c0-0.8,0.1-1.6,0.4-2.4
			c0.2-0.7,0.6-1.4,1.1-1.9c0.5-0.5,1.1-1,1.8-1.3c0.7-0.3,1.5-0.5,2.4-0.5c0.7,0,1.4,0.1,2.1,0.3c0.6,0.2,1.2,0.5,1.6,0.9
			c0.5,0.4,0.8,0.9,1.1,1.5c0.3,0.6,0.4,1.2,0.4,1.9h-2.9c0-0.3,0-0.6-0.1-0.8c-0.1-0.3-0.3-0.5-0.5-0.7c-0.2-0.2-0.4-0.3-0.7-0.5
			c-0.3-0.1-0.6-0.2-0.9-0.2c-0.5,0-0.9,0.1-1.2,0.3c-0.3,0.2-0.6,0.5-0.8,0.8c-0.2,0.3-0.3,0.7-0.4,1.1c-0.1,0.4-0.1,0.9-0.1,1.3
			v0.3c0,0.5,0,0.9,0.1,1.3c0.1,0.4,0.2,0.8,0.4,1.1c0.2,0.3,0.4,0.6,0.8,0.8C221.1,85.5,221.6,85.6,222.1,85.6z"/>
		<path class="st2" d="M233.5,77.5c0.4-0.6,0.9-1,1.5-1.4c0.6-0.3,1.2-0.5,1.9-0.5c0.6,0,1.2,0.1,1.7,0.3c0.5,0.2,1,0.5,1.4,0.9
			c0.4,0.4,0.7,0.9,0.9,1.5c0.2,0.6,0.3,1.4,0.3,2.3v7.3H238v-7.3c0-0.4-0.1-0.8-0.2-1.1c-0.1-0.3-0.3-0.6-0.5-0.8
			c-0.2-0.2-0.4-0.3-0.7-0.4c-0.3-0.1-0.6-0.1-1-0.1c-0.5,0-1,0.1-1.3,0.3c-0.4,0.2-0.7,0.4-0.9,0.8v8.7h-3.1v-17h3.1V77.5z"/>
		<path class="st2" d="M246.8,75.9l0.2,1.7c0.4-0.6,1-1.1,1.6-1.4s1.3-0.5,2-0.5c0.6,0,1.2,0.1,1.7,0.3s0.9,0.5,1.3,0.8
			c0.4,0.4,0.7,0.9,0.9,1.5c0.2,0.6,0.3,1.4,0.3,2.2v7.4h-3.1v-7.3c0-0.5-0.1-0.9-0.2-1.2c-0.1-0.3-0.3-0.5-0.5-0.7
			s-0.4-0.3-0.7-0.4c-0.3-0.1-0.6-0.1-1-0.1c-0.5,0-1,0.1-1.3,0.3c-0.4,0.2-0.7,0.5-0.9,0.9v8.5H244v-12H246.8z"/>
		<path class="st2" d="M257.2,81.8c0-0.9,0.1-1.7,0.4-2.4c0.3-0.7,0.6-1.4,1.1-1.9c0.5-0.5,1.1-1,1.8-1.3c0.7-0.3,1.5-0.5,2.4-0.5
			c0.9,0,1.7,0.2,2.4,0.5c0.7,0.3,1.3,0.7,1.8,1.3c0.5,0.5,0.9,1.2,1.1,1.9c0.3,0.7,0.4,1.6,0.4,2.4V82c0,0.9-0.1,1.7-0.4,2.4
			c-0.3,0.7-0.6,1.4-1.1,1.9c-0.5,0.5-1.1,1-1.8,1.3c-0.7,0.3-1.5,0.5-2.4,0.5c-0.9,0-1.7-0.2-2.4-0.5c-0.7-0.3-1.3-0.7-1.8-1.3
			c-0.5-0.5-0.9-1.2-1.1-1.9c-0.3-0.7-0.4-1.6-0.4-2.4V81.8z M260.3,82c0,0.5,0,1,0.1,1.4c0.1,0.4,0.2,0.8,0.5,1.2
			c0.2,0.3,0.5,0.6,0.8,0.8c0.3,0.2,0.7,0.3,1.2,0.3c0.5,0,0.8-0.1,1.2-0.3c0.3-0.2,0.6-0.5,0.8-0.8c0.2-0.3,0.4-0.7,0.4-1.2
			c0.1-0.4,0.1-0.9,0.1-1.4v-0.2c0-0.5,0-1-0.1-1.4c-0.1-0.4-0.2-0.8-0.4-1.2c-0.2-0.3-0.5-0.6-0.8-0.8c-0.3-0.2-0.7-0.3-1.2-0.3
			c-0.5,0-0.9,0.1-1.2,0.3c-0.3,0.2-0.6,0.5-0.8,0.8c-0.2,0.3-0.4,0.7-0.5,1.2c-0.1,0.4-0.1,0.9-0.1,1.4V82z"/>
		<path class="st2" d="M271.9,70.8h6.7v14.5h3.4v2.5h-10.2v-2.5h3.6v-12h-3.6V70.8z"/>
		<path class="st2" d="M284.5,81.8c0-0.9,0.1-1.7,0.4-2.4c0.3-0.7,0.6-1.4,1.1-1.9c0.5-0.5,1.1-1,1.8-1.3c0.7-0.3,1.5-0.5,2.4-0.5
			c0.9,0,1.7,0.2,2.4,0.5c0.7,0.3,1.3,0.7,1.8,1.3c0.5,0.5,0.9,1.2,1.1,1.9c0.3,0.7,0.4,1.6,0.4,2.4V82c0,0.9-0.1,1.7-0.4,2.4
			c-0.3,0.7-0.6,1.4-1.1,1.9c-0.5,0.5-1.1,1-1.8,1.3c-0.7,0.3-1.5,0.5-2.4,0.5c-0.9,0-1.7-0.2-2.4-0.5c-0.7-0.3-1.3-0.7-1.8-1.3
			c-0.5-0.5-0.9-1.2-1.1-1.9c-0.3-0.7-0.4-1.6-0.4-2.4V81.8z M287.6,82c0,0.5,0,1,0.1,1.4c0.1,0.4,0.2,0.8,0.5,1.2
			c0.2,0.3,0.5,0.6,0.8,0.8c0.3,0.2,0.7,0.3,1.2,0.3c0.5,0,0.8-0.1,1.2-0.3c0.3-0.2,0.6-0.5,0.8-0.8c0.2-0.3,0.4-0.7,0.4-1.2
			c0.1-0.4,0.1-0.9,0.1-1.4v-0.2c0-0.5,0-1-0.1-1.4c-0.1-0.4-0.2-0.8-0.4-1.2c-0.2-0.3-0.5-0.6-0.8-0.8c-0.3-0.2-0.7-0.3-1.2-0.3
			c-0.5,0-0.9,0.1-1.2,0.3c-0.3,0.2-0.6,0.5-0.8,0.8c-0.2,0.3-0.4,0.7-0.5,1.2c-0.1,0.4-0.1,0.9-0.1,1.4V82z"/>
		<path class="st2" d="M298.3,81.8c0-0.9,0.1-1.7,0.3-2.5c0.2-0.8,0.5-1.4,1-1.9c0.4-0.5,0.9-1,1.5-1.3c0.6-0.3,1.3-0.4,2-0.4
			c0.7,0,1.3,0.1,1.8,0.4c0.5,0.2,0.9,0.6,1.3,1l0.1-1.1h2.8v11.6c0,0.8-0.1,1.5-0.4,2.2c-0.3,0.6-0.7,1.2-1.2,1.6
			c-0.5,0.4-1.1,0.8-1.8,1c-0.7,0.2-1.5,0.3-2.3,0.3c-0.4,0-0.8,0-1.2-0.1c-0.4-0.1-0.8-0.2-1.2-0.3c-0.4-0.2-0.8-0.4-1.2-0.6
			c-0.4-0.2-0.7-0.5-0.9-0.9l1.4-1.9c0.4,0.4,0.8,0.8,1.3,1c0.5,0.2,1,0.3,1.6,0.3c0.9,0,1.5-0.2,2-0.7c0.5-0.5,0.7-1.1,0.7-2v-0.7
			c-0.4,0.4-0.8,0.7-1.3,0.9c-0.5,0.2-1,0.3-1.7,0.3c-0.7,0-1.4-0.2-2-0.5c-0.6-0.3-1.1-0.7-1.5-1.3c-0.4-0.5-0.7-1.2-1-1.9
			c-0.2-0.7-0.3-1.6-0.3-2.4V81.8z M301.4,82c0,0.5,0.1,1,0.1,1.4c0.1,0.4,0.3,0.8,0.5,1.1c0.2,0.3,0.5,0.6,0.8,0.8
			c0.3,0.2,0.7,0.3,1.1,0.3c0.5,0,1-0.1,1.3-0.3c0.4-0.2,0.6-0.5,0.8-0.9v-5.1c-0.2-0.4-0.5-0.7-0.8-0.9c-0.4-0.2-0.8-0.3-1.3-0.3
			c-0.4,0-0.8,0.1-1.1,0.3c-0.3,0.2-0.6,0.4-0.8,0.8c-0.2,0.3-0.4,0.7-0.5,1.2c-0.1,0.4-0.2,0.9-0.2,1.4V82z"/>
		<path class="st2" d="M313,75.9h6.5v9.5h3.3v2.5H313v-2.5h3.4v-7H313V75.9z M316.2,72.8c0-0.2,0-0.5,0.1-0.7
			c0.1-0.2,0.2-0.4,0.4-0.5c0.2-0.1,0.3-0.3,0.6-0.3c0.2-0.1,0.5-0.1,0.7-0.1c0.5,0,1,0.2,1.3,0.5c0.3,0.3,0.5,0.7,0.5,1.2
			c0,0.5-0.2,0.9-0.5,1.2c-0.3,0.3-0.8,0.5-1.3,0.5c-0.3,0-0.5,0-0.7-0.1c-0.2-0.1-0.4-0.2-0.6-0.3c-0.2-0.1-0.3-0.3-0.4-0.5
			S316.2,73,316.2,72.8z"/>
		<path class="st2" d="M331.7,88.1c-0.9,0-1.8-0.2-2.5-0.5c-0.8-0.3-1.4-0.7-1.9-1.2c-0.5-0.5-1-1.1-1.2-1.8
			c-0.3-0.7-0.4-1.5-0.4-2.3v-0.4c0-0.9,0.1-1.8,0.4-2.5c0.3-0.8,0.7-1.4,1.2-2c0.5-0.5,1.1-1,1.8-1.3c0.7-0.3,1.5-0.5,2.3-0.5
			c0.9,0,1.6,0.1,2.3,0.4c0.7,0.3,1.3,0.7,1.7,1.2c0.5,0.5,0.8,1.1,1.1,1.9c0.2,0.7,0.4,1.5,0.4,2.4v1.3h-8.1
			c0.1,0.4,0.2,0.8,0.4,1.1c0.2,0.3,0.4,0.6,0.7,0.9c0.3,0.2,0.6,0.4,1,0.6c0.4,0.1,0.8,0.2,1.2,0.2c0.3,0,0.6,0,0.9-0.1
			c0.3-0.1,0.6-0.1,0.9-0.3c0.3-0.1,0.5-0.3,0.8-0.4c0.2-0.2,0.4-0.4,0.6-0.6l1.5,1.7c-0.2,0.3-0.4,0.5-0.7,0.8
			c-0.3,0.3-0.7,0.5-1.1,0.7c-0.4,0.2-0.9,0.4-1.4,0.5C332.8,88,332.3,88.1,331.7,88.1z M331.3,78.1c-0.3,0-0.7,0.1-1,0.2
			c-0.3,0.1-0.5,0.3-0.8,0.5c-0.2,0.2-0.4,0.5-0.5,0.8c-0.1,0.3-0.3,0.7-0.3,1.1h5.1v-0.2c0-0.3-0.1-0.6-0.2-0.9s-0.3-0.5-0.5-0.7
			c-0.2-0.2-0.5-0.4-0.8-0.5C332.1,78.2,331.7,78.1,331.3,78.1z"/>
		<path class="st2" d="M347.3,84.6c0-0.2,0-0.3-0.1-0.5c-0.1-0.1-0.2-0.3-0.5-0.4c-0.2-0.1-0.5-0.2-0.9-0.3
			c-0.4-0.1-0.8-0.2-1.4-0.3c-0.7-0.1-1.3-0.3-1.9-0.5c-0.6-0.2-1.1-0.5-1.5-0.8c-0.4-0.3-0.7-0.6-1-1c-0.2-0.4-0.3-0.8-0.3-1.4
			c0-0.5,0.1-1,0.4-1.4c0.2-0.5,0.6-0.8,1-1.2c0.4-0.3,1-0.6,1.6-0.8c0.6-0.2,1.4-0.3,2.2-0.3c0.8,0,1.6,0.1,2.3,0.3
			c0.7,0.2,1.2,0.5,1.7,0.8c0.5,0.3,0.8,0.8,1.1,1.2c0.2,0.5,0.4,1,0.4,1.5h-3.1c0-0.5-0.2-0.9-0.6-1.2c-0.4-0.3-1-0.5-1.7-0.5
			c-0.7,0-1.3,0.1-1.6,0.4c-0.4,0.3-0.5,0.6-0.5,1c0,0.2,0,0.3,0.1,0.5c0.1,0.2,0.2,0.3,0.4,0.4c0.2,0.1,0.4,0.2,0.8,0.3
			c0.3,0.1,0.7,0.2,1.2,0.3c0.7,0.1,1.4,0.3,2,0.5c0.6,0.2,1.2,0.4,1.6,0.7c0.5,0.3,0.8,0.6,1.1,1.1c0.3,0.4,0.4,0.9,0.4,1.5
			c0,0.5-0.1,1-0.4,1.5c-0.3,0.4-0.6,0.8-1.1,1.2c-0.5,0.3-1,0.6-1.7,0.8c-0.7,0.2-1.4,0.3-2.2,0.3c-0.9,0-1.7-0.1-2.4-0.4
			c-0.7-0.2-1.3-0.5-1.7-0.9c-0.5-0.4-0.8-0.8-1.1-1.3c-0.2-0.5-0.4-1-0.4-1.5h2.9c0,0.3,0.1,0.6,0.3,0.8c0.2,0.2,0.4,0.4,0.6,0.6
			c0.2,0.1,0.5,0.2,0.8,0.3c0.3,0.1,0.6,0.1,1,0.1c0.8,0,1.3-0.1,1.7-0.4C347.1,85.3,347.3,85,347.3,84.6z"/>
	</g>
</g>
</svg>
