<?xml version="1.0" encoding="utf-8"?>
<!-- Generator: Adobe Illustrator 22.1.0, SVG Export Plug-In . SVG Version: 6.00 Build 0)  -->
<svg version="1.1" id="Layer_1" xmlns="http://www.w3.org/2000/svg" xmlns:xlink="http://www.w3.org/1999/xlink" x="0px" y="0px"
	 viewBox="0 0 100 100" style="enable-background:new 0 0 100 100;" xml:space="preserve">
<style type="text/css">
	.st0{fill:#1BACB1;}
	.st1{fill:none;}
	.st2{fill:#002B38;}
	.st3{fill:#FFFFFF;}
</style>
<path class="st0" d="M85.6,10H14.4C12,10,10,12,10,14.5v71.1c0,2.4,2,4.4,4.4,4.4h38.3V59H42.3V46.9h10.4v-8.9
	c0-10.3,6.3-15.9,15.5-15.9c4.4,0,8.2,0.3,9.3,0.5v10.8l-6.4,0c-5,0-6,2.4-6,5.9v7.7h12L75.6,59H65.2V90h20.4c2.4,0,4.4-2,4.4-4.4
	V14.5C90,12,88,10,85.6,10"/>
</svg>
