<?xml version="1.0" encoding="utf-8"?>
<!-- Generator: Adobe Illustrator 22.1.0, SVG Export Plug-In . SVG Version: 6.00 Build 0)  -->
<svg version="1.1" id="Layer_1" xmlns="http://www.w3.org/2000/svg" xmlns:xlink="http://www.w3.org/1999/xlink" x="0px" y="0px"
	 viewBox="0 0 100 100" style="enable-background:new 0 0 100 100;" xml:space="preserve">
<style type="text/css">
	.st0{fill:#1BACB1;}
	.st1{fill:none;}
	.st2{fill:#002B38;}
	.st3{fill:#FFFFFF;}
</style>
<path class="st0" d="M73.3,10H26.7C17.5,10,10,17.5,10,26.7v46.5C10,82.5,17.5,90,26.7,90h46.5C82.5,90,90,82.5,90,73.3V26.7
	C90,17.5,82.5,10,73.3,10z M69.9,39.8c0,0.4,0,0.9,0,1.3c0,13.6-10.3,29.2-29.2,29.2c-5.8,0-11.2-1.7-15.7-4.6
	c0.8,0.1,1.6,0.1,2.4,0.1c4.8,0,9.2-1.6,12.7-4.4c-4.5-0.1-8.3-3-9.6-7.1c0.6,0.1,1.3,0.2,1.9,0.2c0.9,0,1.8-0.1,2.7-0.4
	c-4.7-0.9-8.2-5.1-8.2-10.1c0,0,0-0.1,0-0.1c1.4,0.8,3,1.2,4.6,1.3c-2.8-1.8-4.6-5-4.6-8.5c0-1.9,0.5-3.6,1.4-5.2
	c5.1,6.2,12.6,10.3,21.1,10.7c-0.2-0.8-0.3-1.5-0.3-2.3c0-5.7,4.6-10.3,10.3-10.3c3,0,5.6,1.2,7.5,3.2c2.3-0.5,4.5-1.3,6.5-2.5
	c-0.8,2.4-2.4,4.4-4.5,5.7c2.1-0.2,4.1-0.8,5.9-1.6C73.6,36.5,71.9,38.4,69.9,39.8z"/>
</svg>
